# xmcd
#
# Track frame offsets: 
#        150
#        11466
#        19797
#        31312
#        40725
#        51748
#        62559
#        73676
#        84285
#        94177
#        104600
#        115972
#        127678
#        136298
#        147039
#        158731
#        171407
#        184327
#        195542
#        208028
#        218393
#        230278
#        240427
#        251792
#        264884
#        275524
#
# Disc length: 3792 seconds
#
# Revision: 0
# Processed by: cddbd v1.5.2PL0 Copyright (c) Steve Scherf et al.
# Submitted via: ExactAudioCopy v1.0b1
#
DISCID=680ece1a
DTITLE=Sam Cooke - Tribute To The Lady - Hit Kit
DYEAR=2010
DGENRE=R&B
TTITLE0=God Bless The Child
TTITLE1=She's Funny That Way
TTITLE2=I've Got A Right To Sing The Blues
TTITLE3=Good Morning, Heartache
TTITLE4=Ain't Nobody's Bizness (If I Do)
TTITLE5=Comes Love
TTITLE6=Lover Girl
TTITLE7=Let's Call The Whole Thing Off
TTITLE8=Lover Come Back To Me
TTITLE9=Solitude
TTITLE10=They Can't Take That Away From Me
TTITLE11=Crazy In Love With You
TTITLE12=Only Sixteen
TTITLE13=All Of My Life
TTITLE14=Everybody Loves To Cha Cha Cha
TTITLE15=Blue Moon
TTITLE16=Win Your Love For Me
TTITLE17=Lonely Island
TTITLE18=You Send Me
TTITLE19=Love You Most Of All
TTITLE20=(I Love You) For Sentimental Reasons
TTITLE21=The Little Things You Do
TTITLE22=Let's Go Steady Again
TTITLE23=You Were Made For Me
TTITLE24=Summertime - Part 2
TTITLE25=There I've Said It Again
EXTD=
EXTT0=
EXTT1=
EXTT2=
EXTT3=
EXTT4=
EXTT5=
EXTT6=
EXTT7=
EXTT8=
EXTT9=
EXTT10=
EXTT11=
EXTT12=
EXTT13=
EXTT14=
EXTT15=
EXTT16=
EXTT17=
EXTT18=
EXTT19=
EXTT20=
EXTT21=
EXTT22=
EXTT23=
EXTT24=
EXTT25=
PLAYORDER=
